<svg width="65" height="67" viewBox="0 0 65 67" fill="none" xmlns="http://www.w3.org/2000/svg">
<path d="M62.625 16.225C61.025 9.925 56.125 5.025 49.825 3.425C38.025 1.525 26.025 1.525 14.225 3.425C7.925 5.025 3.025 9.925 1.425 16.225C-0.475 28.025 -0.475 40.025 1.425 51.825C3.025 58.125 7.925 63.025 14.225 64.625C26.025 66.525 38.025 66.525 49.825 64.625C56.125 63.025 61.025 58.125 62.625 51.825C64.525 40.025 64.525 28.025 62.625 16.225Z" fill="white"/>
<path d="M16.36 21.44C16.36 20.7467 16.6133 20.1733 17.12 19.72C17.6267 19.24 18.2667 19 19.04 19H30.16C32.08 19 33.7733 19.3867 35.24 20.16C36.7333 20.9067 37.88 21.9867 38.68 23.4C39.5067 24.7867 39.92 26.4 39.92 28.24C39.92 30.1067 39.52 31.7467 38.72 33.16C37.92 34.5467 36.7867 35.6267 35.32 36.4C33.8533 37.1467 32.1333 37.52 30.16 37.52H21.72V43.4C21.72 44.68 21.2533 45.6667 20.32 46.36C19.4133 47.0267 18.0933 47.36 16.36 47.36V21.44ZM30.16 32.88C31.5733 32.88 32.6667 32.4667 33.44 31.64C34.2133 30.8133 34.6 29.6667 34.6 28.2C34.6 26.76 34.2 25.64 33.4 24.84C32.6267 24.04 31.5467 23.64 30.16 23.64H21.72V32.88H30.16Z" fill="#1E293B"/>
<path d="M27.52 48.32C27.52 46.96 27.8 45.9067 28.36 45.16C28.9467 44.4133 29.8267 44.04 31 44.04H48.8C48.8 46.8933 47.6267 48.32 45.28 48.32H27.52Z" fill="black"/>
</svg>
