<svg width="140" height="140" viewBox="0 0 140 140" fill="none" xmlns="http://www.w3.org/2000/svg">
<circle cx="70" cy="70" r="70" fill="#F5F5F5"/>
<path d="M109.626 112.372H30.3682C29.9035 112.372 29.4435 112.28 29.0143 112.102C28.5851 111.924 28.1952 111.663 27.8669 111.333C27.5386 111.004 27.2784 110.614 27.101 110.184C26.9237 109.754 26.8327 109.293 26.8333 108.828V30.3658C26.8336 29.9015 26.9252 29.4418 27.103 29.013C27.2808 28.5842 27.5413 28.1947 27.8695 27.8666C28.1978 27.5386 28.5874 27.2785 29.0162 27.1013C29.4449 26.924 29.9043 26.833 30.3682 26.8335H109.626C110.091 26.833 110.551 26.9241 110.98 27.1016C111.409 27.2791 111.8 27.5395 112.128 27.868C112.457 28.1964 112.718 28.5865 112.896 29.0158C113.074 29.4452 113.166 29.9055 113.167 30.3705V108.832C113.165 109.771 112.792 110.671 112.128 111.335C111.464 111.998 110.564 112.371 109.626 112.372Z" fill="white"/>
<mask id="mask0_812_711" style="mask-type:alpha" maskUnits="userSpaceOnUse" x="26" y="26" width="88" height="87">
<path d="M109.626 112.372H30.3682C29.9035 112.372 29.4435 112.281 29.0143 112.102C28.5851 111.924 28.1952 111.663 27.8669 111.334C27.5386 111.005 27.2784 110.614 27.101 110.184C26.9237 109.755 26.8327 109.294 26.8333 108.829V30.3663C26.8336 29.902 26.9252 29.4423 27.103 29.0135C27.2808 28.5847 27.5413 28.1951 27.8695 27.8671C28.1978 27.5391 28.5874 27.279 29.0162 27.1018C29.4449 26.9245 29.9043 26.8335 30.3682 26.834H109.626C110.091 26.8335 110.551 26.9246 110.98 27.1021C111.409 27.2796 111.8 27.54 112.128 27.8684C112.457 28.1969 112.718 28.5869 112.896 29.0163C113.074 29.4457 113.166 29.906 113.167 30.371V108.833C113.165 109.772 112.792 110.672 112.128 111.335C111.464 111.999 110.564 112.372 109.626 112.372Z" fill="#0B0B0B"/>
</mask>
<g mask="url(#mask0_812_711)">
<path d="M113.441 36.2529V30.5241C113.439 29.409 113.063 28.3405 112.395 27.5533C111.727 26.766 110.822 26.3245 109.879 26.3257H30.134C29.6673 26.3251 29.205 26.4332 28.7736 26.6439C28.3423 26.8547 27.9503 27.1638 27.62 27.5537C27.2897 27.9436 27.0276 28.4066 26.8487 28.9163C26.6698 29.4259 26.5776 29.9723 26.5774 30.5241V36.2529H113.441Z" fill="#292D32"/>
</g>
<path d="M102.399 95.4888H37.7365C36.5142 95.4888 35.5233 96.5012 35.5233 97.7501C35.5233 98.9989 36.5142 100.011 37.7365 100.011H102.399C103.621 100.011 104.612 98.9989 104.612 97.7501C104.612 96.5012 103.621 95.4888 102.399 95.4888Z" fill="#EFF0F2"/>
<path d="M89.2592 97.7501C89.2592 97.1503 89.0265 96.5752 88.6125 96.1511C88.1984 95.727 87.6368 95.4888 87.0513 95.4888H37.7311C37.1455 95.4888 36.584 95.727 36.1699 96.1511C35.7559 96.5752 35.5233 97.1503 35.5233 97.7501C35.5233 98.3498 35.7559 98.925 36.1699 99.349C36.584 99.7731 37.1455 100.011 37.7311 100.011H87.0513C87.6368 100.011 88.1984 99.7731 88.6125 99.349C89.0265 98.925 89.2592 98.3498 89.2592 97.7501Z" fill="#8BC34A"/>
<circle cx="34.9866" cy="31.9087" r="1.5" fill="#EE6B63"/>
<circle cx="38.9866" cy="31.9087" r="1.5" fill="#F3BE4E"/>
<circle cx="42.9866" cy="31.9087" r="1.5" fill="#63C556"/>
<g clip-path="url(#clip0_812_711)">
<path d="M69.7994 86.4977C81.1495 86.4977 90.3505 77.2967 90.3505 65.9466C90.3505 54.5965 81.1495 45.3955 69.7994 45.3955C58.4493 45.3955 49.2483 54.5965 49.2483 65.9466C49.2483 77.2967 58.4493 86.4977 69.7994 86.4977Z" fill="#8BC34A"/>
<path d="M49.6896 66.388C49.6897 62.3498 50.8795 58.4012 53.1104 55.0352C55.3412 51.6692 58.5143 49.035 62.2334 47.4616C65.9524 45.8882 70.0526 45.4453 74.0218 46.1883C77.9911 46.9313 81.6535 48.8272 84.5516 51.6392C82.6551 49.6796 80.3875 48.117 77.881 47.0426C75.3745 45.9682 72.6792 45.4034 69.9522 45.3811C67.2252 45.3588 64.521 45.8794 61.9973 46.9127C59.4735 47.946 57.1807 49.4713 55.2523 51.3996C53.324 53.328 51.7987 55.6208 50.7654 58.1446C49.7321 60.6683 49.2114 63.3725 49.2337 66.0995C49.256 68.8265 49.8208 71.5218 50.8953 74.0283C51.9697 76.5348 53.5323 78.8024 55.4919 80.699C51.7647 76.8684 49.6824 71.7327 49.6896 66.388Z" fill="#AED581"/>
<path d="M65.6623 76.0411L75.4914 85.6944C79.7746 84.4592 83.5401 81.8651 86.2203 78.3031C88.9005 74.7411 90.3501 70.4043 90.3505 65.9466C90.3505 65.7639 90.3505 65.6018 90.3505 65.4053L81.0006 56.083L65.6623 76.0411Z" fill="url(#paint0_linear_812_711)"/>
<path d="M66.931 76.3792C66.5456 76.3795 66.1652 76.2925 65.8183 76.1247C65.4714 75.9569 65.167 75.7127 64.928 75.4105L58.1845 66.9053C57.976 66.6422 57.8213 66.3407 57.7294 66.0179C57.6374 65.6951 57.61 65.3573 57.6485 65.0239C57.6871 64.6905 57.791 64.3679 57.9542 64.0746C58.1175 63.7813 58.3369 63.5231 58.5999 63.3146C58.8629 63.1061 59.1645 62.9515 59.4873 62.8595C59.8101 62.7676 60.1478 62.7401 60.4813 62.7787C60.8147 62.8172 61.1373 62.9211 61.4305 63.0843C61.7238 63.2476 61.9821 63.467 62.1906 63.73L68.9306 72.2352C69.2275 72.6115 69.4125 73.0636 69.4646 73.54C69.5167 74.0165 69.4337 74.4979 69.2252 74.9294C69.0166 75.3609 68.6909 75.725 68.2852 75.9802C67.8795 76.2353 67.4103 76.3712 66.931 76.3724V76.3792Z" fill="white"/>
<path d="M66.9275 76.379C66.4483 76.3779 65.979 76.242 65.5733 75.9868C65.1676 75.7317 64.8419 75.3675 64.6334 74.936C64.4248 74.5046 64.3418 74.0231 64.3939 73.5467C64.446 73.0703 64.6311 72.6181 64.9279 72.2419L77.4117 56.4864C77.8327 55.9551 78.4476 55.6129 79.121 55.535C79.7943 55.4571 80.4711 55.6499 81.0023 56.0709C81.5336 56.492 81.8758 57.1069 81.9537 57.7802C82.0316 58.4536 81.8388 59.1304 81.4178 59.6616L68.9306 75.4102C68.6915 75.7125 68.3871 75.9567 68.0402 76.1245C67.6933 76.2923 67.3129 76.3793 66.9275 76.379Z" fill="white"/>
</g>
<defs>
<linearGradient id="paint0_linear_812_711" x1="71.8818" y1="64.6055" x2="85.8824" y2="78.6061" gradientUnits="userSpaceOnUse">
<stop stop-color="#689F38"/>
<stop offset="1" stop-color="#8BC34A"/>
</linearGradient>
<clipPath id="clip0_812_711">
<rect width="41.1022" height="41.1022" fill="white" transform="translate(49.2483 45.3955)"/>
</clipPath>
</defs>
</svg>
