<svg width="140" height="140" viewBox="0 0 140 140" fill="none" xmlns="http://www.w3.org/2000/svg">
<circle cx="70" cy="70" r="70" fill="#F5F5F5"/>
<path d="M109.626 112.373H30.3682C29.9036 112.373 29.4435 112.281 29.0144 112.103C28.5852 111.924 28.1953 111.663 27.867 111.334C27.5387 111.005 27.2784 110.614 27.1011 110.185C26.9237 109.755 26.8328 109.294 26.8334 108.829V30.3657C26.8336 29.9014 26.9253 29.4417 27.1031 29.0129C27.2809 28.5841 27.5413 28.1946 27.8696 27.8665C28.1979 27.5385 28.5875 27.2784 29.0162 27.1011C29.445 26.9239 29.9044 26.8329 30.3682 26.8334H109.626C110.091 26.8329 110.551 26.924 110.98 27.1015C111.41 27.279 111.8 27.5394 112.129 27.8678C112.457 28.1963 112.718 28.5864 112.896 29.0157C113.074 29.4451 113.166 29.9054 113.167 30.3704V108.833C113.165 109.772 112.792 110.672 112.128 111.336C111.464 111.999 110.564 112.372 109.626 112.373Z" fill="white"/>
<mask id="mask0_812_537" style="mask-type:alpha" maskUnits="userSpaceOnUse" x="26" y="26" width="88" height="87">
<path d="M109.626 112.373H30.3682C29.9036 112.373 29.4435 112.282 29.0144 112.103C28.5852 111.925 28.1953 111.664 27.867 111.335C27.5387 111.006 27.2784 110.615 27.1011 110.185C26.9237 109.756 26.8328 109.295 26.8334 108.83V30.3664C26.8336 29.9021 26.9253 29.4425 27.1031 29.0137C27.2809 28.5848 27.5413 28.1953 27.8696 27.8673C28.1979 27.5392 28.5875 27.2791 29.0162 27.1019C29.445 26.9246 29.9044 26.8336 30.3682 26.8341H109.626C110.091 26.8336 110.551 26.9247 110.98 27.1022C111.41 27.2797 111.8 27.5401 112.129 27.8686C112.457 28.197 112.718 28.5871 112.896 29.0165C113.074 29.4459 113.166 29.9062 113.167 30.3711V108.834C113.165 109.773 112.792 110.673 112.128 111.336C111.464 112 110.564 112.373 109.626 112.373Z" fill="#0B0B0B"/>
</mask>
<g mask="url(#mask0_812_537)">
<path d="M113.441 36.2534V30.5245C113.439 29.4094 113.063 28.3409 112.395 27.5536C111.727 26.7664 110.822 26.3249 109.879 26.3261H30.1342C29.6675 26.3255 29.2053 26.4336 28.7739 26.6443C28.3425 26.855 27.9505 27.1642 27.6202 27.554C27.2899 27.9439 27.0279 28.407 26.849 28.9167C26.6701 29.4263 26.5779 29.9727 26.5776 30.5245V36.2534H113.441Z" fill="#292D32"/>
</g>
<path d="M102.399 95.4891H37.7368C36.5145 95.4891 35.5236 96.5016 35.5236 97.7505C35.5236 98.9993 36.5145 100.012 37.7368 100.012H102.399C103.622 100.012 104.613 98.9993 104.613 97.7505C104.613 96.5016 103.622 95.4891 102.399 95.4891Z" fill="#EFF0F2"/>
<path d="M89.2595 97.7505C89.2595 97.1507 89.0268 96.5755 88.6128 96.1515C88.1987 95.7274 87.6372 95.4891 87.0516 95.4891H37.7314C37.1459 95.4891 36.5843 95.7274 36.1702 96.1515C35.7562 96.5755 35.5236 97.1507 35.5236 97.7505C35.5236 98.3502 35.7562 98.9254 36.1702 99.3494C36.5843 99.7735 37.1459 100.012 37.7314 100.012H87.0516C87.6372 100.012 88.1987 99.7735 88.6128 99.3494C89.0268 98.9254 89.2595 98.3502 89.2595 97.7505Z" fill="#FFC107"/>
<circle cx="34.9866" cy="31.9084" r="1.5" fill="#EE6B63"/>
<circle cx="38.9866" cy="31.9084" r="1.5" fill="#F3BE4E"/>
<circle cx="42.9866" cy="31.9084" r="1.5" fill="#63C556"/>
<g clip-path="url(#clip0_812_537)">
<path d="M71.0841 86.498C82.4341 86.498 91.6352 77.2969 91.6352 65.9467C91.6352 54.5965 82.4341 45.3954 71.0841 45.3954C59.734 45.3954 50.533 54.5965 50.533 65.9467C50.533 77.2969 59.734 86.498 71.0841 86.498Z" fill="#FFC107"/>
<path d="M50.9742 66.388C50.9744 62.3498 52.1641 58.4011 54.395 55.035C56.6259 51.669 59.799 49.0348 63.5181 47.4614C67.2371 45.888 71.3373 45.4451 75.3065 46.1881C79.2757 46.9311 82.9381 48.827 85.8363 51.639C83.9398 49.6794 81.6721 48.1168 79.1656 47.0424C76.6591 45.9679 73.9638 45.4031 71.2368 45.3808C68.5098 45.3585 65.8057 45.8792 63.2819 46.9125C60.7582 47.9458 58.4653 49.4711 56.537 51.3995C54.6086 53.3278 53.0834 55.6207 52.0501 58.1445C51.0168 60.6683 50.4961 63.3724 50.5184 66.0995C50.5407 68.8265 51.1055 71.5218 52.1799 74.0284C53.2544 76.5349 54.8169 78.8025 56.7765 80.6991C53.0494 76.8685 50.9671 71.7327 50.9742 66.388Z" fill="#FFD600"/>
<path d="M76.6623 85.7327C79.9649 84.7985 82.9817 83.0535 85.4383 80.6565C87.8949 78.2595 89.7134 75.2865 90.7284 72.0077L72.7251 54.0145L70.3118 70.6907L73.125 73.504L69.0293 77.6411L76.6623 85.7327Z" fill="url(#paint0_linear_812_537)"/>
<path d="M68.1915 75.5381C68.1922 74.966 68.3622 74.4069 68.6803 73.9313C68.9983 73.4558 69.4501 73.0851 69.9786 72.866C70.5071 72.6469 71.0886 72.5893 71.6498 72.7004C72.211 72.8115 72.7267 73.0863 73.1319 73.4902C73.4051 73.7557 73.621 74.0744 73.7663 74.4267C73.9116 74.7789 73.9831 75.1571 73.9766 75.5381C73.9822 75.9229 73.9093 76.3048 73.7623 76.6605C73.6152 77.0161 73.3973 77.3381 73.1216 77.6066C72.8549 77.8783 72.5368 78.0941 72.1857 78.2414C71.8347 78.3887 71.4579 78.4645 71.0772 78.4645C70.6965 78.4645 70.3196 78.3887 69.9686 78.2414C69.6176 78.0941 69.2994 77.8783 69.0327 77.6066C68.7597 77.3368 68.5444 77.0143 68.3998 76.6587C68.2552 76.3031 68.1843 75.9219 68.1915 75.5381ZM73.687 67.0052C73.687 68.3061 73.4733 69.2703 73.0457 69.8977C72.828 70.21 72.5334 70.4607 72.1903 70.6256C71.8472 70.7905 71.4673 70.864 71.0875 70.8389C70.7088 70.8581 70.3316 70.7793 69.9922 70.6102C69.6528 70.4411 69.3628 70.1874 69.15 69.8736C68.7179 69.2392 68.5007 68.2774 68.4984 66.9879V57.2174C68.4984 55.9486 68.7156 55.0005 69.15 54.3731C69.3673 54.0621 69.6609 53.8122 70.0026 53.6474C70.3443 53.4826 70.7227 53.4084 71.1013 53.4319C71.477 53.409 71.8523 53.4821 72.1918 53.6444C72.5314 53.8066 72.8241 54.0526 73.0423 54.3593C73.4698 54.9821 73.6836 55.9325 73.6836 57.2105L73.687 67.0052Z" fill="white"/>
</g>
<defs>
<linearGradient id="paint0_linear_812_537" x1="70.2911" y1="65.4607" x2="85.3642" y2="80.537" gradientUnits="userSpaceOnUse">
<stop stop-color="#FF9800"/>
<stop offset="1" stop-color="#FFC107"/>
</linearGradient>
<clipPath id="clip0_812_537">
<rect width="41.1022" height="41.1026" fill="white" transform="translate(50.533 45.3954)"/>
</clipPath>
</defs>
</svg>
